Coordinates
version=1
nRows=8
nColumns=40
inDegrees=yes

Units are S.I. units (second, meters, Newtons, ...)
Angles are in degrees.

endheader
time	pelvis_tilt	pelvis_list	pelvis_rotation	pelvis_tx	pelvis_ty	pelvis_tz	hip_flexion_r	hip_adduction_r	hip_rotation_r	knee_angle_r	knee_angle_r_beta	ankle_angle_r	subtalar_angle_r	mtp_angle_r	hip_flexion_l	hip_adduction_l	hip_rotation_l	knee_angle_l	knee_angle_l_beta	ankle_angle_l	subtalar_angle_l	mtp_angle_l	lumbar_extension	lumbar_bending	lumbar_rotation	arm_flex_r	arm_add_r	arm_rot_r	elbow_flex_r	pro_sup_r	wrist_flex_r	wrist_dev_r	arm_flex_l	arm_add_l	arm_rot_l	elbow_flex_l	pro_sup_l	wrist_flex_l	wrist_dev_l
      0.00000000	     -5.07647836	     -1.14395065	     21.04574706	     -1.82023586	      0.88719866	     -1.32485341	     31.15322350	     -2.48449686	    -26.54540278	    -16.23009078	     -0.28326852	      6.59921177	     -5.36431763	      0.54768651	     -1.52396983	      7.80636875	     21.68393323	    -28.09816202	     -0.49040544	      9.30926426	      4.57572410	     -2.85068874	     -3.45823369	     -2.82577147	    -10.66246738	     -7.49044962	     -7.36454035	    -18.64881259	     19.16772647	     89.95437384	      0.00000000	      0.00000000	      6.99213918	     19.98838256	     18.66105544	     53.18265785	     89.95437384	      0.00000000	      0.00000000
      0.01000000	     -4.90790810	     -0.98307679	     21.17475691	     -1.80964911	      0.88609594	     -1.32740569	     30.92713030	     -2.71451617	    -26.44987891	    -16.73897251	     -0.29215018	      6.80304303	     -5.80796589	      0.67646998	     -2.28476166	      7.90138122	     21.40193094	    -28.45396522	     -0.49661538	      8.88781370	      4.72313273	     -2.83892404	     -3.49282606	     -2.83183484	    -11.06801222	     -7.64348508	     -7.41936619	    -18.72688828	     18.85900936	     89.95437384	      0.00000000	      0.00000000	      6.64634971	     19.94185451	     18.88745822	     53.71649932	     89.95437384	      0.00000000	      0.00000000
      0.02000000	     -5.06545976	     -0.85051580	     21.19144077	     -1.79877945	      0.88448652	     -1.32961516	     30.92291900	     -2.91244314	    -25.94841215	    -17.25376007	     -0.30113492	      6.58081169	     -5.71393243	      0.68668916	     -2.70550877	      7.92443165	     20.97581682	    -28.90068223	     -0.50441206	      8.57631239	      4.61026682	     -2.77922054	     -3.10915919	     -2.94506351	    -11.16326458	     -8.16135065	     -7.43252617	    -18.69429077	     18.97371083	     89.95437384	      0.00000000	      0.00000000	      6.46576418	     19.81077828	     18.87461899	     53.86977624	     89.95437384	      0.00000000	      0.00000000
      0.03000000	     -4.51099445	     -0.66050973	     21.37082145	     -1.78732371	      0.88397525	     -1.33210208	     30.15215906	     -2.86376724	    -25.21264618	    -18.15977469	     -0.31694786	      6.16876709	     -8.63567893	      1.70456607	     -3.98619559	      8.00836496	     20.25409021	    -28.93989163	     -0.50509639	      7.68051674	      5.38695112	     -2.80672540	     -3.50824223	     -2.82789264	    -11.81913037	     -7.95702609	     -7.43983826	    -19.15232017	     18.31308153	     89.95437384	      0.00000000	      0.00000000	      5.78387349	     19.67454857	     19.56920867	     54.55542334	     89.95437384	      0.00000000	      0.00000000
      0.04000000	     -4.42854349	     -0.47329124	     21.39429371	     -1.77580846	      0.88266817	     -1.33428211	     30.01870917	     -3.16374227	    -25.67679468	    -19.54041587	     -0.34104459	      5.06305429	     -9.59693010	      2.09776712	     -4.63931406	      8.15780869	     20.10606262	    -29.45482832	     -0.51408373	      6.93082773	      5.35126555	     -2.71454134	     -3.35457533	     -2.87855289	    -12.08308111	     -8.22906654	     -7.47662278	    -19.12874090	     18.22969798	     89.95437384	      0.00000000	      0.00000000	      5.31938541	     19.52497880	     19.78332225	     54.79725921	     89.95437384	      0.00000000	      0.00000000
      0.05000000	     -4.26780791	     -0.60449215	     21.51684155	     -1.76447563	      0.88165525	     -1.33582512	     29.67787264	     -2.81556893	    -25.53720000	    -20.17350308	     -0.35209405	      2.93081507	    -12.96151361	      3.93409084	     -5.07968789	      8.72609506	     19.50056376	    -30.15090421	     -0.52623255	      6.04769852	      5.18195193	     -2.77400524	     -3.23265735	     -2.59762471	    -12.60031696	     -8.22368620	     -7.47930248	    -19.27460640	     17.93906383	     89.95437384	      0.00000000	      0.00000000	      4.68984270	     19.36692397	     20.29039867	     55.10257985	     89.95437384	      0.00000000	      0.00000000
      0.06000000	     -4.23596666	     -0.64323122	     21.25674909	     -1.75301062	      0.88077458	     -1.33707674	     29.66863147	     -2.76177053	    -25.49360025	    -21.41325007	     -0.37373172	      2.23605259	    -13.01208244	      4.08275593	     -5.52465565	      9.05943158	     19.06704085	    -30.77687220	     -0.53715775	      5.13756504	      5.20461416	     -2.62000171	     -2.96166169	     -2.42861647	    -12.55118299	     -8.35823506	     -7.52443785	    -19.25122985	     17.77688779	     89.95437384	      0.00000000	      0.00000000	      4.25864104	     19.17467109	     20.37792672	     55.03808913	     89.95437384	      0.00000000	      0.00000000
      0.07000000	     -4.18439524	     -1.04186736	     21.08975070	     -1.74156286	      0.88006205	     -1.33823621	     29.73216217	     -2.42288512	    -25.57496818	    -22.61847682	     -0.39476689	      0.92216552	    -13.10692116	      4.38326202	     -5.58716031	      9.50536613	     18.59417355	    -31.39528480	     -0.54795109	      3.67823206	      6.62444245	     -2.31858782	     -2.56413239	     -1.89231926	    -12.58960196	     -8.33123273	     -7.60806979	    -19.40709590	     17.36357556	     89.95437384	      0.00000000	      0.00000000	      4.10175347	     18.38501348	     21.41174844	     54.54090077	     89.95437384	      0.00000000	      0.00000000
